<?xml version="1.0" standalone="no"?>
<!DOCTYPE svg PUBLIC "-//W3C//DTD SVG 20010904//EN"
 "http://www.w3.org/TR/2001/REC-SVG-20010904/DTD/svg10.dtd">
<svg version="1.0" xmlns="http://www.w3.org/2000/svg"
 width="431.000000pt" height="431.000000pt" viewBox="0 0 431.000000 431.000000"
 preserveAspectRatio="xMidYMid meet">
<metadata>
Created by potrace 1.11, written by Peter Selinger 2001-2013
</metadata>
<g transform="translate(0.000000,431.000000) scale(0.100000,-0.100000)"
fill="#000000" stroke="none">
<path d="M2145 4263 c-175 -45 -314 -146 -394 -287 -17 -28 -41 -88 -55 -132
l-26 -80 -72 -18 c-102 -26 -197 -78 -277 -152 -61 -57 -149 -169 -139 -179 1
-2 35 20 74 49 102 75 217 131 297 146 37 7 70 10 74 7 4 -5 -17 -121 -33
-178 -3 -13 -24 -17 -102 -22 -362 -22 -549 -328 -352 -577 64 -81 221 -163
337 -176 l56 -7 -6 -141 c-7 -182 9 -683 28 -901 60 -649 183 -1095 370 -1340
65 -84 126 -137 208 -179 l62 -31 165 0 c180 0 222 8 332 64 214 109 332 346
354 706 6 102 1 184 -26 420 -43 389 -25 671 57 865 39 93 45 146 18 186 -14
21 -23 25 -58 22 -39 -3 -44 -7 -78 -63 -78 -130 -123 -278 -140 -460 -10 -99
-9 -154 5 -320 49 -576 42 -814 -29 -995 -59 -150 -233 -261 -410 -261 -121
-1 -199 35 -291 132 -176 188 -287 586 -348 1249 -21 225 -38 667 -34 883 l3
179 54 18 c68 25 142 72 182 118 86 98 105 236 48 351 -38 77 -108 147 -182
186 -32 17 -57 37 -57 45 0 20 37 200 42 205 2 2 26 -2 53 -10 98 -30 149 -14
149 48 0 48 -24 72 -96 98 -32 12 -58 24 -58 26 0 9 57 119 82 159 39 61 122
130 181 150 37 13 83 18 162 19 100 0 116 -3 170 -28 125 -58 194 -167 197
-309 1 -67 -27 -241 -44 -272 -5 -10 -11 -44 -12 -75 -2 -31 -9 -89 -16 -128
-13 -71 -14 -73 -49 -84 -60 -19 -135 -57 -174 -90 -82 -68 -135 -187 -123
-277 17 -117 127 -262 239 -313 l27 -12 -6 -216 c-4 -123 -1 -313 5 -441 23
-440 24 -475 12 -545 -28 -156 -109 -229 -238 -211 -64 9 -110 40 -152 106
-60 93 -98 213 -127 405 -13 82 -17 185 -18 406 -1 319 -1 318 -55 337 -22 8
-38 6 -71 -9 l-43 -19 6 -278 c16 -641 72 -878 246 -1034 75 -68 143 -91 256
-86 76 2 99 8 149 33 149 75 233 254 222 469 -16 286 -17 549 -6 779 l13 247
82 0 c179 0 338 87 402 219 39 81 38 182 -2 266 -59 123 -211 237 -357 267
l-60 13 6 70 c4 38 11 74 16 79 15 15 146 -10 205 -39 96 -47 194 -141 287
-274 28 -39 28 -21 2 54 -72 207 -233 365 -413 407 l-52 12 8 60 c4 34 7 104
6 157 -4 220 -115 390 -322 492 -84 42 -85 42 -205 44 -67 1 -130 -1 -141 -4z"/>
</g>
</svg>
